<svg width="20" height="20" viewBox="0 0 20 20" fill="none" xmlns="http://www.w3.org/2000/svg">
<path d="M2.94297 18.9429C2.42227 19.4636 1.57805 19.4636 1.05735 18.9429C0.536655 18.4222 0.536655 17.578 1.05735 17.0573L8.11454 10.0001L1.05735 2.94289C0.536654 2.42219 0.536654 1.57797 1.05735 1.05727C1.57805 0.536573 2.42227 0.536573 2.94297 1.05727L10.0002 8.11446L17.0574 1.05727C17.5781 0.536573 18.4223 0.536573 18.943 1.05727C19.4637 1.57797 19.4637 2.42219 18.943 2.94289L11.8858 10.0001L18.943 17.0573C19.4637 17.578 19.4637 18.4222 18.943 18.9429C18.4223 19.4636 17.5781 19.4636 17.0574 18.9429L10.0002 11.8857L2.94297 18.9429Z" fill="white"/>
</svg>
