<svg width="20" height="20" viewBox="0 0 20 20" fill="none" xmlns="http://www.w3.org/2000/svg">
<path fill-rule="evenodd" clip-rule="evenodd" d="M8.20712 1.76718C8.52057 1.2198 9.05619 0.495605 10.0002 0.495605C10.9441 0.495605 11.4797 1.21981 11.7932 1.76718C12.1216 2.34069 12.4507 3.16254 12.836 4.12481L12.9035 4.29333C13.1429 4.89116 13.2957 5.2694 13.4414 5.54693C13.5763 5.80413 13.6667 5.89667 13.7405 5.95163C13.8142 6.00652 13.9284 6.06637 14.2128 6.12168C14.5198 6.1814 14.9252 6.21899 15.5658 6.27645L15.868 6.30355C16.8165 6.38857 17.6369 6.4621 18.242 6.60513C18.8368 6.74571 19.6255 7.04293 19.9114 7.89431C20.1971 8.74504 19.7485 9.45825 19.3597 9.92994C18.964 10.41 18.3547 10.9651 17.6502 11.607L17.0893 12.1181C16.6951 12.4773 16.4466 12.7049 16.2697 12.8966C16.1053 13.0748 16.0522 13.1708 16.0246 13.2416C16.0072 13.286 15.9928 13.3315 15.9814 13.3777C15.9633 13.4516 15.9514 13.5609 15.9833 13.8017C16.0176 14.0606 16.0897 14.3901 16.2051 14.9111L16.2876 15.2837C16.482 16.161 16.6455 16.8989 16.7093 17.4656C16.767 17.9771 16.8018 18.7313 16.3004 19.2905C16.0381 19.583 15.697 19.7938 15.3179 19.8974C14.5923 20.0957 13.9336 19.725 13.5032 19.4439C13.0261 19.1324 12.441 18.6548 11.7455 18.0872L11.699 18.0492C11.2017 17.6433 10.8818 17.3836 10.6196 17.2079C10.3722 17.0422 10.2509 17.0043 10.1713 16.9915C10.0579 16.9734 9.9424 16.9734 9.82904 16.9915C9.74939 17.0043 9.62812 17.0422 9.38074 17.2079C9.11852 17.3836 8.79863 17.6433 8.30126 18.0492L8.25474 18.0872C7.55933 18.6548 6.97424 19.1324 6.49715 19.4439C6.06668 19.725 5.40797 20.0957 4.68243 19.8974C4.30329 19.7938 3.96221 19.583 3.69992 19.2905C3.19852 18.7313 3.23335 17.9771 3.29099 17.4656C3.35484 16.8989 3.51833 16.161 3.71271 15.2836L3.79522 14.9111C3.91065 14.3901 3.98276 14.0606 4.01704 13.8017C4.04891 13.5609 4.03704 13.4516 4.01886 13.3777C4.00747 13.3314 3.99307 13.286 3.97575 13.2416C3.94814 13.1708 3.89503 13.0748 3.73059 12.8966C3.55367 12.7049 3.3052 12.4773 2.91102 12.1181L2.35011 11.607C1.64558 10.9651 1.03634 10.41 0.640619 9.92994C0.251802 9.45825 -0.196742 8.74504 0.0889216 7.89431C0.374804 7.04293 1.16352 6.74571 1.75829 6.60513C2.3634 6.4621 3.18386 6.38856 4.13234 6.30355C4.15819 6.30123 4.18415 6.29891 4.21019 6.29657L4.43446 6.27645C5.07507 6.21899 5.48049 6.1814 5.78755 6.12168C6.07193 6.06637 6.18613 6.00652 6.25983 5.95163C6.33364 5.89667 6.42397 5.80413 6.55895 5.54693C6.7046 5.2694 6.85739 4.89116 7.09681 4.29333L7.13503 4.1979C7.14482 4.17345 7.15458 4.14908 7.1643 4.1248C7.54961 3.16254 7.87869 2.34069 8.20712 1.76718Z" fill="white"/>
</svg>
